# xmcd
#
# Track frame offsets:
#	150
#	8627
#	23137
#	32929
#	47628
#	58808
#	72880
#	82608
#	96590
#	107051
#	118124
#	129832
#	142120
#	151618
#
# Disc length: 2187 seconds
#
# Revision: 0
# Processed by: cddbd v1.4PL0 Copyright (c) Steve Scherf et al.
# Submitted via: EasyCDDAExtractor 4.6.9.1
#
DISCID=b108890e
DTITLE=Leo Kottke - 6 And 12 String Guitar
DYEAR=1900
DGENRE=Blues
TTITLE0=The Driving of the Year Nail
TTITLE1=The Last Of The Arkansas Greyhound
TTITLE2=Ojo
TTITLE3=Crow River Waltz
TTITLE4=The Sailor's Grave On The Prairie
TTITLE5=Vaseline Machine Gun
TTITLE6=Jack Fig
TTITLE7=Watermelon
TTITLE8=Jesu, Joy Of Man's Desiring
TTITLE9=The Fisherman
TTITLE10=The Tennessee Toad
TTITLE11=Busted Bicycle
TTITLE12=The Brain Of The Purple Mountain
TTITLE13=Coolidge Rising
EXTD=
EXTT0=
EXTT1=
EXTT2=
EXTT3=
EXTT4=
EXTT5=
EXTT6=
EXTT7=
EXTT8=
EXTT9=
EXTT10=
EXTT11=
EXTT12=
EXTT13=
PLAYORDER=
